<mxfile host="Electron" modified="2024-06-17T21:09:05.164Z" agent="Mozilla/5.0 (Windows NT 10.0; Win64; x64) AppleWebKit/537.36 (KHTML, like Gecko) draw.io/24.5.3 Chrome/124.0.6367.207 Electron/30.0.6 Safari/537.36" etag="Am7TKfDnpcfaGHHNLwU7" version="24.5.3" type="device">
  <diagram name="Page-1" id="NH_qRrgQAh2SErHOhOCu">
    <mxGraphModel dx="1888" dy="237" grid="1" gridSize="10" guides="1" tooltips="1" connect="1" arrows="1" fold="1" page="0" pageScale="1" pageWidth="850" pageHeight="1100" math="0" shadow="0">
      <root>
        <mxCell id="0" />
        <mxCell id="1" parent="0" />
        <mxCell id="1o-0LNOOsbjIZMORf-kw-39" style="edgeStyle=orthogonalEdgeStyle;curved=0;rounded=1;orthogonalLoop=1;jettySize=auto;html=1;strokeColor=default;align=center;verticalAlign=middle;fontFamily=Helvetica;fontSize=11;fontColor=default;labelBackgroundColor=default;endArrow=none;endFill=0;" edge="1" parent="1" source="1o-0LNOOsbjIZMORf-kw-1" target="1o-0LNOOsbjIZMORf-kw-38">
          <mxGeometry relative="1" as="geometry" />
        </mxCell>
        <mxCell id="1o-0LNOOsbjIZMORf-kw-1" value="SOAP?" style="rounded=0;whiteSpace=wrap;html=1;" vertex="1" parent="1">
          <mxGeometry x="840" y="520" width="120" height="40" as="geometry" />
        </mxCell>
        <mxCell id="1o-0LNOOsbjIZMORf-kw-22" style="edgeStyle=orthogonalEdgeStyle;curved=0;rounded=1;orthogonalLoop=1;jettySize=auto;html=1;strokeColor=default;align=center;verticalAlign=middle;fontFamily=Helvetica;fontSize=11;fontColor=default;labelBackgroundColor=default;endArrow=none;endFill=0;" edge="1" parent="1" source="1o-0LNOOsbjIZMORf-kw-3" target="1o-0LNOOsbjIZMORf-kw-18">
          <mxGeometry relative="1" as="geometry" />
        </mxCell>
        <mxCell id="1o-0LNOOsbjIZMORf-kw-3" value="API" style="rounded=0;whiteSpace=wrap;html=1;" vertex="1" parent="1">
          <mxGeometry x="840" y="680" width="120" height="40" as="geometry" />
        </mxCell>
        <mxCell id="1o-0LNOOsbjIZMORf-kw-23" style="edgeStyle=orthogonalEdgeStyle;curved=0;rounded=1;orthogonalLoop=1;jettySize=auto;html=1;strokeColor=default;align=center;verticalAlign=middle;fontFamily=Helvetica;fontSize=11;fontColor=default;labelBackgroundColor=default;endArrow=none;endFill=0;" edge="1" parent="1" source="1o-0LNOOsbjIZMORf-kw-4" target="1o-0LNOOsbjIZMORf-kw-18">
          <mxGeometry relative="1" as="geometry" />
        </mxCell>
        <mxCell id="1o-0LNOOsbjIZMORf-kw-4" value="Web UI" style="rounded=0;whiteSpace=wrap;html=1;" vertex="1" parent="1">
          <mxGeometry x="1040" y="680" width="120" height="40" as="geometry" />
        </mxCell>
        <mxCell id="1o-0LNOOsbjIZMORf-kw-8" value="" style="edgeStyle=orthogonalEdgeStyle;rounded=0;orthogonalLoop=1;jettySize=auto;html=1;endArrow=none;endFill=0;" edge="1" parent="1" source="1o-0LNOOsbjIZMORf-kw-7" target="1o-0LNOOsbjIZMORf-kw-46">
          <mxGeometry relative="1" as="geometry">
            <mxPoint x="760" y="619.9999999999999" as="targetPoint" />
          </mxGeometry>
        </mxCell>
        <mxCell id="1o-0LNOOsbjIZMORf-kw-18" value="" style="shape=providedRequiredInterface;html=1;verticalLabelPosition=bottom;sketch=0;rotation=-180;" vertex="1" parent="1">
          <mxGeometry x="990" y="690" width="20" height="20" as="geometry" />
        </mxCell>
        <mxCell id="1o-0LNOOsbjIZMORf-kw-12" value="&lt;span style=&quot;color: rgb(0, 0, 0); font-family: Helvetica; font-size: 10px; font-style: normal; font-variant-ligatures: normal; font-variant-caps: normal; font-weight: 400; letter-spacing: normal; orphans: 2; text-align: center; text-indent: 0px; text-transform: none; widows: 2; word-spacing: 0px; -webkit-text-stroke-width: 0px; white-space: normal; background-color: rgb(251, 251, 251); text-decoration-thickness: initial; text-decoration-style: initial; text-decoration-color: initial; float: none; display: inline !important;&quot;&gt;IConverter&lt;/span&gt;" style="text;whiteSpace=wrap;html=1;fontFamily=Helvetica;fontSize=10;fontColor=default;labelBackgroundColor=default;verticalAlign=middle;" vertex="1" parent="1">
          <mxGeometry x="795" y="590" width="50" height="10" as="geometry" />
        </mxCell>
        <mxCell id="1o-0LNOOsbjIZMORf-kw-7" value="" style="shape=providedRequiredInterface;html=1;verticalLabelPosition=bottom;sketch=0;rotation=-180;" vertex="1" parent="1">
          <mxGeometry x="810" y="610" width="20" height="20" as="geometry" />
        </mxCell>
        <mxCell id="1o-0LNOOsbjIZMORf-kw-27" style="edgeStyle=orthogonalEdgeStyle;curved=0;rounded=1;orthogonalLoop=1;jettySize=auto;html=1;strokeColor=default;align=center;verticalAlign=middle;fontFamily=Helvetica;fontSize=11;fontColor=default;labelBackgroundColor=default;endArrow=none;endFill=0;" edge="1" parent="1" source="1o-0LNOOsbjIZMORf-kw-1" target="1o-0LNOOsbjIZMORf-kw-43">
          <mxGeometry relative="1" as="geometry" />
        </mxCell>
        <mxCell id="1o-0LNOOsbjIZMORf-kw-28" style="edgeStyle=orthogonalEdgeStyle;curved=0;rounded=1;orthogonalLoop=1;jettySize=auto;html=1;strokeColor=default;align=center;verticalAlign=middle;fontFamily=Helvetica;fontSize=11;fontColor=default;labelBackgroundColor=default;endArrow=none;endFill=0;" edge="1" parent="1" source="1o-0LNOOsbjIZMORf-kw-3" target="1o-0LNOOsbjIZMORf-kw-43">
          <mxGeometry relative="1" as="geometry" />
        </mxCell>
        <mxCell id="1o-0LNOOsbjIZMORf-kw-41" style="edgeStyle=orthogonalEdgeStyle;curved=0;rounded=1;orthogonalLoop=1;jettySize=auto;html=1;strokeColor=default;align=center;verticalAlign=middle;fontFamily=Helvetica;fontSize=11;fontColor=default;labelBackgroundColor=default;endArrow=none;endFill=0;" edge="1" parent="1" source="1o-0LNOOsbjIZMORf-kw-37" target="1o-0LNOOsbjIZMORf-kw-38">
          <mxGeometry relative="1" as="geometry" />
        </mxCell>
        <mxCell id="1o-0LNOOsbjIZMORf-kw-37" value="Desktop app" style="rounded=0;whiteSpace=wrap;html=1;" vertex="1" parent="1">
          <mxGeometry x="1040" y="520" width="120" height="40" as="geometry" />
        </mxCell>
        <mxCell id="1o-0LNOOsbjIZMORf-kw-38" value="" style="shape=providedRequiredInterface;html=1;verticalLabelPosition=bottom;sketch=0;rotation=-180;" vertex="1" parent="1">
          <mxGeometry x="990" y="530" width="20" height="20" as="geometry" />
        </mxCell>
        <mxCell id="1o-0LNOOsbjIZMORf-kw-44" style="edgeStyle=orthogonalEdgeStyle;curved=0;rounded=1;orthogonalLoop=1;jettySize=auto;html=1;strokeColor=default;align=center;verticalAlign=middle;fontFamily=Helvetica;fontSize=11;fontColor=default;labelBackgroundColor=default;endArrow=none;endFill=0;" edge="1" parent="1" source="1o-0LNOOsbjIZMORf-kw-43" target="1o-0LNOOsbjIZMORf-kw-7">
          <mxGeometry relative="1" as="geometry" />
        </mxCell>
        <mxCell id="1o-0LNOOsbjIZMORf-kw-43" value="OR" style="rhombus;whiteSpace=wrap;html=1;fontFamily=Helvetica;fontSize=11;fontColor=default;labelBackgroundColor=default;" vertex="1" parent="1">
          <mxGeometry x="860" y="605" width="80" height="30" as="geometry" />
        </mxCell>
        <mxCell id="1o-0LNOOsbjIZMORf-kw-45" value="CurrencyConverter" style="swimlane;whiteSpace=wrap;html=1;fontFamily=Helvetica;fontSize=11;fontColor=default;labelBackgroundColor=default;swimlaneLine=1;" vertex="1" parent="1">
          <mxGeometry x="-440" y="400" width="1160" height="440" as="geometry" />
        </mxCell>
        <mxCell id="1o-0LNOOsbjIZMORf-kw-63" style="edgeStyle=entityRelationEdgeStyle;rounded=1;orthogonalLoop=1;jettySize=auto;html=1;strokeColor=default;align=center;verticalAlign=middle;fontFamily=Helvetica;fontSize=11;fontColor=default;labelBackgroundColor=default;endArrow=none;endFill=0;" edge="1" parent="1o-0LNOOsbjIZMORf-kw-45" source="1o-0LNOOsbjIZMORf-kw-46" target="1o-0LNOOsbjIZMORf-kw-60">
          <mxGeometry relative="1" as="geometry" />
        </mxCell>
        <mxCell id="1o-0LNOOsbjIZMORf-kw-46" value="+ string &lt;b&gt;ConvertNumbersToString&lt;/b&gt;(string numbers)" style="rounded=0;whiteSpace=wrap;html=1;fontFamily=Helvetica;fontSize=11;fontColor=default;labelBackgroundColor=default;" vertex="1" parent="1o-0LNOOsbjIZMORf-kw-45">
          <mxGeometry x="840" y="200" width="280" height="40" as="geometry" />
        </mxCell>
        <mxCell id="1o-0LNOOsbjIZMORf-kw-49" value="- bool &lt;b&gt;InputStringNumbersAreValid&lt;/b&gt;(string numbers)" style="rounded=0;whiteSpace=wrap;html=1;fontFamily=Helvetica;fontSize=11;fontColor=default;labelBackgroundColor=default;" vertex="1" parent="1o-0LNOOsbjIZMORf-kw-45">
          <mxGeometry x="840" y="40" width="280" height="40" as="geometry" />
        </mxCell>
        <mxCell id="1o-0LNOOsbjIZMORf-kw-64" style="edgeStyle=entityRelationEdgeStyle;rounded=1;orthogonalLoop=1;jettySize=auto;html=1;strokeColor=default;align=center;verticalAlign=middle;fontFamily=Helvetica;fontSize=11;fontColor=default;labelBackgroundColor=default;endArrow=none;endFill=0;" edge="1" parent="1o-0LNOOsbjIZMORf-kw-45" source="1o-0LNOOsbjIZMORf-kw-56" target="1o-0LNOOsbjIZMORf-kw-46">
          <mxGeometry relative="1" as="geometry" />
        </mxCell>
        <mxCell id="1o-0LNOOsbjIZMORf-kw-56" value="- string&amp;nbsp;&lt;b&gt;ConvertNumberToWords&lt;/b&gt;(int number)" style="rounded=0;whiteSpace=wrap;html=1;fontFamily=Helvetica;fontSize=11;fontColor=default;labelBackgroundColor=default;" vertex="1" parent="1o-0LNOOsbjIZMORf-kw-45">
          <mxGeometry x="520" y="200" width="240" height="40" as="geometry" />
        </mxCell>
        <mxCell id="1o-0LNOOsbjIZMORf-kw-62" style="edgeStyle=orthogonalEdgeStyle;rounded=1;orthogonalLoop=1;jettySize=auto;html=1;strokeColor=default;align=center;verticalAlign=middle;fontFamily=Helvetica;fontSize=11;fontColor=default;labelBackgroundColor=default;endArrow=none;endFill=0;" edge="1" parent="1o-0LNOOsbjIZMORf-kw-45" source="1o-0LNOOsbjIZMORf-kw-60" target="1o-0LNOOsbjIZMORf-kw-61">
          <mxGeometry relative="1" as="geometry" />
        </mxCell>
        <mxCell id="1o-0LNOOsbjIZMORf-kw-60" value="- (int dollars, int cents) &lt;b&gt;DivideInputStringNumbers&lt;/b&gt;(string numbers)" style="rounded=0;whiteSpace=wrap;html=1;fontFamily=Helvetica;fontSize=11;fontColor=default;labelBackgroundColor=default;" vertex="1" parent="1o-0LNOOsbjIZMORf-kw-45">
          <mxGeometry x="400" y="120" width="360" height="40" as="geometry" />
        </mxCell>
        <mxCell id="1o-0LNOOsbjIZMORf-kw-61" value="- int&amp;nbsp;&lt;b&gt;ConvertStringNumberToInt&lt;/b&gt;(string number)" style="rounded=0;whiteSpace=wrap;html=1;fontFamily=Helvetica;fontSize=11;fontColor=default;labelBackgroundColor=default;" vertex="1" parent="1o-0LNOOsbjIZMORf-kw-45">
          <mxGeometry x="80" y="120" width="280" height="40" as="geometry" />
        </mxCell>
        <mxCell id="1o-0LNOOsbjIZMORf-kw-67" style="edgeStyle=entityRelationEdgeStyle;rounded=1;orthogonalLoop=1;jettySize=auto;html=1;strokeColor=default;align=center;verticalAlign=middle;fontFamily=Helvetica;fontSize=11;fontColor=default;labelBackgroundColor=default;endArrow=none;endFill=0;" edge="1" parent="1o-0LNOOsbjIZMORf-kw-45" source="1o-0LNOOsbjIZMORf-kw-65" target="1o-0LNOOsbjIZMORf-kw-46">
          <mxGeometry relative="1" as="geometry" />
        </mxCell>
        <mxCell id="1o-0LNOOsbjIZMORf-kw-65" value="- string&amp;nbsp;&lt;b&gt;CombineWords&lt;/b&gt;(string dollars, string cents)" style="rounded=0;whiteSpace=wrap;html=1;fontFamily=Helvetica;fontSize=11;fontColor=default;labelBackgroundColor=default;" vertex="1" parent="1o-0LNOOsbjIZMORf-kw-45">
          <mxGeometry x="480" y="280" width="280" height="40" as="geometry" />
        </mxCell>
        <mxCell id="1o-0LNOOsbjIZMORf-kw-66" value="Called twice for dollars and cents" style="text;html=1;align=center;verticalAlign=middle;whiteSpace=wrap;rounded=0;fontFamily=Helvetica;fontSize=11;fontColor=default;labelBackgroundColor=default;strokeColor=default;" vertex="1" parent="1o-0LNOOsbjIZMORf-kw-45">
          <mxGeometry x="520" y="240" width="170" height="20" as="geometry" />
        </mxCell>
        <mxCell id="1o-0LNOOsbjIZMORf-kw-69" style="edgeStyle=entityRelationEdgeStyle;rounded=1;orthogonalLoop=1;jettySize=auto;html=1;strokeColor=default;align=center;verticalAlign=middle;fontFamily=Helvetica;fontSize=11;fontColor=default;labelBackgroundColor=default;endArrow=none;endFill=0;" edge="1" parent="1" source="1o-0LNOOsbjIZMORf-kw-49" target="1o-0LNOOsbjIZMORf-kw-7">
          <mxGeometry relative="1" as="geometry" />
        </mxCell>
      </root>
    </mxGraphModel>
  </diagram>
</mxfile>
